<svg width="14" height="20" viewBox="0 0 14 20" fill="none" xmlns="http://www.w3.org/2000/svg">
<path id="Vector" d="M14 17.6674L11.2424 11.4819C11.2424 11.4819 11.8763 11.0556 12.1131 10.8805C12.9454 10.2982 13.4467 9.46965 13.4494 8.42214V6.68881C13.4494 4.79194 12.353 3.05795 10.6166 2.20926L7.11917 0.5L3.50198 2.26729V3.29799C3.61105 3.29799 3.61105 3.29799 3.50198 3.29799C1.67044 3.29799 0.186389 4.74908 0.186389 6.53846C0.186389 8.32784 1.67112 9.77893 3.50198 9.77893V10.3678L2.0773 11.023C0.797689 11.6112 -0.0133286 12.8737 0.000165839 14.2555V17.8798L3.49827 19.498L3.50232 19.5L6.81791 17.8798L10.284 19.5L14 17.6674ZM7.11985 1.15878L10.347 2.73615C11.8885 3.48955 12.8466 5.00395 12.8466 6.68848V8.4195C12.8445 9.23225 12.4792 9.89861 11.7619 10.4001L11.7552 10.4047L11.7491 10.4093C11.5255 10.5745 10.9064 10.9916 10.9003 10.9956L10.4914 11.2709L13.2197 17.3915L10.5771 18.6961L7.6097 12.202C8.69836 12.3309 9.83224 11.2584 9.83224 10.1192V8.37565C9.83224 6.44383 8.69566 4.68478 6.91136 3.8539L4.1929 2.58843L7.11985 1.15878ZM3.50266 15.8144C3.50266 14.543 4.20167 13.3692 5.33285 12.7411L6.81487 11.9155L6.81825 11.9168V17.2226L3.50266 18.8429V15.8144ZM0.789592 6.53945C0.789592 5.07748 2.00612 3.88786 3.50266 3.88786C4.9992 3.88786 6.21572 5.07682 6.21572 6.53945C6.21572 8.00208 4.9992 9.19104 3.50266 9.19104C2.00713 9.19038 0.789592 8.00142 0.789592 6.53945Z" fill="#2C2E33"/>
</svg>
